<svg id="barbershop-seeklogo.com_Konvertiert_" data-name="barbershop-seeklogo.com [Konvertiert]" xmlns="http://www.w3.org/2000/svg" viewBox="0 0 541.46 541.46">
  <defs>
    <style>
      .cls-1 {
        fill: rgba(255,255,255,0);
      }

      .cls-1, .cls-2, .cls-3, .cls-4, .cls-5 {
        fill-rule: evenodd;
      }

      .cls-2 {
        fill: #c6c6c6;
      }

      .cls-3 {
        fill: #fff;
      }

      .cls-4 {
        fill: #ccc;
      }

      .cls-5 {
        fill: #6a6869;
      }
    </style>
  </defs>
  <path id="Path_46" data-name="Path 46" class="cls-1" d="M0,0H541.46V541.46H0V0Z"/>
  <path id="Path_47" data-name="Path 47" class="cls-2" d="M305,179.78a1,1,0,1,1,2,0v35.6l-2-.66ZM287.13,596.66a1,1,0,1,1-1.98-.2L287.37,574l1.94.67-2.18,22ZM322.34,221l2.53-25.58a1,1,0,0,1,2,.19l-2.59,26.18-1.92-.79ZM211.8,574.17a1,1,0,0,1-1.76-.94l20.51-38.32c.59,1.21,1,1.88,1,1.89l.35-.13-20.06,37.5ZM382.05,251.85l18.15-33.91a1,1,0,0,1,1.76.94l-18.42,34.4ZM150.81,524.56a1,1,0,0,1-1.27-1.54l62-50.78a1.847,1.847,0,0,0,.13.5c.13.53.28,1.07.43,1.61l-61.24,50.21Zm259-214.93,51.34-42.08a1,1,0,0,1,1.27,1.53L411,311.3c-.34-.55-.71-1.11-1.11-1.67ZM113.44,455.39a1,1,0,1,1-.57-1.91l76.72-23.23h6.89l-83,25.14ZM438.92,354.77l59.64-18a1,1,0,1,1,.57,1.91l-60.21,18.23v-2.09ZM105.39,377.18a1,1,0,1,1,.2-2l67.49,6.69v2l-67.69-6.71Zm333.53,31,67.69,6.7a1,1,0,0,1-.2,1.98l-67.49-6.68v-2Zm-311-106.37a1,1,0,0,1,.93-1.76l44.26,23.7V326l-45.19-24.19ZM406.4,448.62l2.47,1.36a1.008,1.008,0,0,1-1,1.75l-1.66-.92c.06-.67.12-1.41.15-2.19Zm14.33,10a1,1,0,0,1,.93-1.76l62.45,33.43a1,1,0,1,1-.93,1.75ZM177.49,240.86a.995.995,0,1,1,1.54-1.26l10.7,13c-.18.68-.37,1.51-.56,2.46l-11.68-14.24ZM390.12,497.1l44.38,54.15a1,1,0,0,1-1.53,1.26l-43.33-52.86a14.081,14.081,0,0,0-.13-1.47l.61-1.08ZM246.66,203.49a1,1,0,1,1,1.91-.57l6.13,20.23a1,1,0,1,1-1.91.58l-6.13-20.24ZM257,237.67a1,1,0,0,1,1.91-.58l.72,2.4q-1,.1-2,.24l-.62-2.06ZM356.36,559l9,29.65a1,1,0,0,1-1.91.58l-8.66-28.61q.8-.76,1.59-1.62ZM250.23,590.75a.994.994,0,1,1-1.91-.55l8.7-29.83c.54.53,1.09,1,1.63,1.51ZM353.12,231l8.66-29.68a1,1,0,1,1,1.9.56L355,231.67l-.27.27-1.61-.91ZM180,554.59a1,1,0,0,1-1.55-1.25L210,514.05a1,1,0,1,1,1.55,1.25ZM222.29,501a.91.91,0,0,1-.42-.2,1,1,0,0,1-.15-1.39l.74-.93c-.08.84-.14,1.68-.17,2.52ZM405.21,270.92,432,237.51a1,1,0,1,1,1.55,1.25L406.2,272.87q-.49-1-1-1.95ZM128.89,494.29a1.008,1.008,0,1,1-1-1.75l47.73-26.16a1,1,0,1,1,1,1.74Zm64.17-35.19a1,1,0,1,1-.95-1.74l13.56-7.49c.06.78.14,1.51.22,2.16l-12.83,7.07ZM445.44,320.74a1,1,0,1,1-1-1.74l38.63-21.19a1,1,0,1,1,.96,1.75L445.4,320.74ZM104.77,419a1.006,1.006,0,0,1-.21-2l57.35-6.26a1.005,1.005,0,0,1,.21,2Zm334.15-38.51,9.11-1a1.005,1.005,0,1,1,.21,2l-9.32,1v-2Zm27.93-1a1,1,0,0,1-.21-1.98l40.59-4.43a1.005,1.005,0,0,1,.21,2l-40.59,4.43ZM111.3,340.28a.994.994,0,0,1,.55-1.91l57.25,16.7a1,1,0,0,1-.55,1.91Zm315.45,90,18.64,5.44a1,1,0,1,1-.55,1.91l-25.18-7.35Zm36.1,12.61a1,1,0,1,1,.56-1.91l37.29,10.88a1,1,0,1,1-.55,1.91l-37.3-10.88ZM147.46,270a1,1,0,0,1,1.25-1.55l29.6,23.77c0,.84.08,1.74.16,2.69l-31-24.91ZM400.81,470.92l19.1,15.33a1,1,0,0,1-1.25,1.55L400.3,473.06l.09-.32c.15-.61.29-1.21.42-1.82Zm32.49,28.64a1,1,0,0,1,1.25-1.56l30,24.09a1,1,0,0,1-1.25,1.55l-30-24.08ZM207.76,218.94a1.008,1.008,0,0,1,1.75-1l18.28,33.35c-.79-.07-1.58-.13-2.37-.17L207.76,218.9ZM383.39,539.28a1,1,0,0,1,1.74-1l19.11,34.85a1.008,1.008,0,0,1-1.75,1l-19.1-34.84ZM283,194.82a1.005,1.005,0,0,1,2-.21l2.68,24.52a19.094,19.094,0,0,0-2,.07Zm43.35,378.53L329,597.28a1.006,1.006,0,0,1-2,.21l-2.56-23.42,1.93-.72Zm-54.15,1.72a1.018,1.018,0,1,1-2-.38l1-5c.82.31,1.47.53,1.9.66l-.92,4.76Zm65.45-347.18L339.78,217a1.017,1.017,0,0,1,2,.37l-2.22,11.42-1.85-.94ZM206.28,548.51a1,1,0,1,1-1.66-1.09l19.64-29.67c.22.87.45,1.72.69,2.56ZM392.59,263.43l13.13-19.84a1,1,0,1,1,1.66,1.1l-13.51,20.42c-.42-.57-.85-1.13-1.28-1.68ZM155.53,498.75a1,1,0,0,1-1.12-1.65l54-36.45a.81.81,0,0,1,.33-.14,12,12,0,0,0,1.07,1.5,1.14,1.14,0,0,1-.29.29l-54,36.45Zm261.84-179,39.1-26.37a1,1,0,1,1,1.11,1.65l-36.64,24.72ZM127.68,433.35a1.02,1.02,0,1,1-.4-2l45.8-9.32v2l-45.4,9.24ZM438.92,368l45.4-9.24a1,1,0,1,1,.39,1.95L438.92,370ZM127,362.27a1,1,0,1,1,.37-1.96l45.72,8.89v2l-46.09-9Zm311.93,58.6,46.09,9a1.017,1.017,0,1,1-.37,2l-45.72-8.89v-2.11ZM153.54,296.34a1,1,0,1,1,1.1-1.67l19.94,13.2a1,1,0,1,1-1.1,1.66Zm27.56,18.24a1,1,0,0,1,1.1-1.66l2.23,1.48a46,46,0,0,0,2.59,4.1Zm222.66,145L409,463a1,1,0,1,1-1.1,1.66l-5.17-3.42a17.768,17.768,0,0,0,1-1.7Zm9.26,8.51a1,1,0,0,1,1.1-1.66l44.34,29.35a1,1,0,1,1-1.1,1.66L413,468.08ZM203.3,245.58a1,1,0,0,1,1.66-1.11l4.53,6.72c-.83,0-1.6.09-2.31.14ZM388.15,516.06l20.55,30.46a1,1,0,0,1-1.66,1.12l-19.53-29c.22-.85.44-1.72.64-2.61ZM268.71,217.73a1,1,0,1,1,1.94-.39l2.93,14.37c-.65.37-1.25.75-1.81,1.11Zm73.5,351.33,1.08,5.31a1,1,0,0,1-1.94.4l-1-5c.54-.2,1.17-.45,1.87-.75ZM224.15,596.24a.993.993,0,1,1-1.84-.75l19.4-46.82c.43.75.85,1.47,1.26,2.14ZM369.07,241.18l18.78-45.32a.991.991,0,1,1,1.83.76l-19,45.78c-.55-.42-1.1-.82-1.65-1.22ZM153.78,549.69a1,1,0,1,1-1.42-1.41l41.93-41.93a1,1,0,0,1,1.42,1.41l-41.93,41.93Zm47.56-47.57a1,1,0,0,1-1.41-1.41l15.89-15.89c.29.66.58,1.32.87,2l-15.35,15.34ZM414.89,285.75l6.32-6.32a1,1,0,0,1,1.41,1.41l-7.92,7.92c.11-1.06.16-2,.18-2.84v-.17Zm14.93-12.1a1,1,0,1,1-1.42-1.41l29.82-29.82a1,1,0,1,1,1.41,1.41ZM106.57,479.74a1,1,0,0,1-.76-1.84l43.78-18.14a1,1,0,1,1,.76,1.84l-43.78,18.14Zm51.76-21.45a1,1,0,1,1-.75-1.83l48.73-20.19c-.12.77-.23,1.54-.32,2.28l-47.66,19.74ZM438.92,339.92l66.51-27.55a1,1,0,0,1,.76,1.84l-67.27,27.86v-2.15ZM89.72,397.05a1,1,0,0,1,0-2h61.84a1,1,0,0,1,0,2Zm70,0a1,1,0,1,1,0-2h13.34v2Zm279.18-2h28.52a1,1,0,0,1,0,2h-28.5v-2Zm42,2a1,1,0,0,1,0-2h41.32a1,1,0,0,1,0,2ZM105.81,314.21a1,1,0,1,1,.76-1.84l56.52,23.41a1,1,0,1,1-.76,1.84ZM170,340.79a1,1,0,1,1,.76-1.84l2.33,1v2.15ZM405.66,436l14.24,6.14a1,1,0,0,1-.79,1.83L406,438.32c-.09-.75-.2-1.53-.32-2.31Zm28.19,14.08a1,1,0,0,1,.76-1.84l71.58,29.65a1,1,0,1,1-.76,1.84l-71.58-29.65ZM152.36,243.83a1,1,0,1,1,1.42-1.41l34.2,34.2a1,1,0,0,1-1.41,1.41l-34.21-34.2ZM400.78,492.24a1,1,0,0,1,1.41-1.41l57.44,57.45a1,1,0,1,1-1.41,1.41l-57.44-57.45ZM222.31,196.62a1,1,0,0,1,1.84-.76l19.37,46.75-1.92.56-19.29-46.55Zm148,352.06,19.38,46.81a1,1,0,1,1-1.84.75L369,550.81c.41-.67.83-1.38,1.27-2.13ZM307,578.42v14.31a1,1,0,0,1-2,0V578.42Zm-2,23.5a1,1,0,0,1,2,0v10.3a1,1,0,0,1-2,0Z" transform="translate(-35.27 -125.27)"/>
  <path id="Path_48" data-name="Path 48" class="cls-3" d="M361.52,468.77a48.938,48.938,0,0,1-8.81-.5c-19.43-2.82-34.1-17.5-34.1-17.5s10.78,15.45,30.59,19.41c0,0-31-2.22-43.2-16.43-12.2,14.21-43.2,16.43-43.2,16.43,19.81-4,30.6-19.41,30.6-19.41s-14.67,14.68-34.11,17.5a48.883,48.883,0,0,1-8.8.5,41.14,41.14,0,0,0,21.32,4.73,10.87,10.87,0,0,0-4,6c-.35,1.52,11.1,6.33,20.16,7.74-12.51,2.72-29,14.21-28.51,22.58.66,10.84,20.76,10.68,24,14,2,2.09-17.06,3.67-19,8.35-1.47,3.47.41,7.34,4.33,8.6,2-9.51,19.27-10.63,19.67-16,.42-5.52-15.85-6.43-19.21-12-6.38-10.51,23.53-25.2,27.6-21.52s-7,14.09-10.85,16.34a12.16,12.16,0,0,0,.57-5.93s-1.94,5.58-9,11.39c0,0,2.69,4.3,5,3.88,5.25-1,26.59-20.69,16.45-28.62a7.451,7.451,0,0,0-2.7-1.3,3.34,3.34,0,0,0,2.3-4.08c-.5-2.94-10.28-5.49-14.29-7.67,0,0,13.69,1.11,21.65,1.26,8-.15,21.66-1.26,21.66-1.26-4,2.18-13.8,4.73-14.3,7.67-1.9,11.15,32.16-.71,31.57-3.28-.88-3.84-4.73-6.18-4.73-6.18a41.18,41.18,0,0,0,21.32-4.73Zm29.84-53.66a48,48,0,0,0,2.88,9.09c7.65,18.52,3,35.51,2.51,29s-5.14-16-5.14-16c2.13,7.28,4.26,21.2,1.12,33.59s-11.41,25.77-11.41,25.77c3.14,16.61-7.77,36.48-7.77,36.48,1.25-5.88-1-15.59-1-15.59C372.3,534.6,358,553.12,358,553.12c4-8.42,3.13-20,3.13-20-6,25.29-24.82,29.77-24.82,29.77a12.61,12.61,0,0,0,1.88-6c-8.64,9.44-26.64,12.93-32.19,13.81-5.55-.88-23.55-4.37-32.19-13.81a12.61,12.61,0,0,0,1.88,6s-18.8-4.48-24.82-29.77c0,0-.88,11.63,3.13,20,0,0-14.29-18.52-14.54-35.64,0,0-2.26,9.71-1,15.59,0,0-10.9-19.87-7.77-36.48,0,0-8.28-13.38-11.41-25.77s-1-26.31,1.13-33.59c0,0-4.64,9.45-5.14,16s-5.15-10.47,2.51-29a54.446,54.446,0,0,0,2.45-7.2c-.33-.6-.65-1.24-.94-1.89H227l.14.4s-3.64,6.9-4.51,12.52c0,0,6.27-8.18,12.66-10.22,0,0-8.15,11.5-10.28,23.63-1.11,6.3,1.24,12.85,5,17.65a17.14,17.14,0,0,1-2.2-11.12,26.65,26.65,0,0,1,13.67-20.34c-4.76.16-10.78,5.14-10.78,5.14,13.37-16.34,35.68-8.14,28.78,2.24.37-7.66-15.93-8.43-17.81,2.3s6,14.56,6,14.56c-8.65-1-11.41-7.41-11.41-7.41s-.25,11.63,14.42,11.12,27.84-16.23,27.84-16.23c-6.15,2.43-14.17,7.79-14.17,7.79s6.64-11.24,18.68-14.05c9.44-2.2,19.18,2.5,22.95,4.64,3.78-2.14,13.52-6.84,22.95-4.64,12,2.81,18.68,14.05,18.68,14.05s-8-5.36-14.17-7.79c0,0,13.17,15.71,27.84,16.23s14.42-11.12,14.42-11.12-2.76,6.39-11.41,7.41c0,0,7.9-3.83,6-14.56s-18.18-10-17.81-2.3c-6.9-10.38,15.42-18.58,28.78-2.24,0,0-6-5-10.78-5.14A26.65,26.65,0,0,1,384.19,448,17,17,0,0,1,382,459.08c3.74-4.79,6.08-11.34,5-17.64-2.13-12.13-10.28-23.63-10.28-23.63,6.4,2,12.67,10.22,12.67,10.22-.88-5.62-4.52-12.52-4.52-12.52l.15-.4ZM328.67,506c-.84,0-2,.27-2.95,2.49-1.5,3.55-.34,4.77-.34,4.77s-3.43,6.3-5.54,5,1.52-8.16,5.13-12.77c1.86-2.38,3-2.91,3.7-2.71,1.2.37.23,2.43,0,3.18Zm28.08,12c1,.39,1.61,3.45-3.06,5.2-3.62,1.37-10.15,2.47-19.15,4,.4-1.28.87-2.61,1.38-4C346.16,521.78,354.25,520.34,356.75,518Zm-6.21-6.53c2.49-.76,6.16-2.08,8-3.68,0,0-1.25,5.2-3.43,5.81a29.668,29.668,0,0,1-5.94.41c-1.42,2.45-2.78,4.27-3.66,4.42-2.55.44-5.67-1.64-5.6-3.39s4.85-3,4.85-3,8-12.57,5.22-11.69-9.9,8.95-14.85,17.66c-2.73,6.2-5.07,12.63-4.78,16.95,0,0-7.84.66-7.48-3.47a10.2,10.2,0,0,1,.81-2.53c-3.66.63-7.59,1.33-11.78,2.13-19.78,3.76-29.72,9-31.17,15.33-5.85-1.62-5.3-5.56-4.23-7.7,1.73-3.5,8.65-5.94,14.11-7.61,10.25-3.15,23.32-5,35.19-6.56,1.79-3.5,4.16-7.78,6.38-11.91a10,10,0,0,1-3.69.8c-2.39,4.21-5.88,8.2-8.23,8.65-2.56.49-6.93-1.29-7.15-3.28a3.358,3.358,0,0,1,0-.78c-2.09,2.94-4.6,5.84-6.23,5.64-3.28-.39-4.24-1.89-4.28-3.39s3.2-7.28,8.48-14.28c0,0-9.67,6.49-16.14,21,0,0-5.42-.78-4.68-4.67,1.29-6.75,16.74-24.09,15.1-32,7.35.88,6.41,4.83,4.45,7.89-4.17,6.53-11.25,18.23-11.25,18.23s12.46-14.78,13.92-14.91,4.27,1.4,4.26,2.17-9,13.65-7.69,13.74c.95.07,4.66-3.87,6.66-6.07.21-.4.44-.81.68-1.24,4.91-8.69,9.2-12.42,13.11-10.78,3.64,1.53,1.87,5.26.65,6.77.66.38.91,1.37.31,3.1-.24.68-.54,1.39-.88,2.12a13.39,13.39,0,0,0,5.64-4.47c1.82-3.57,3.19-6.59,3.49-8.23,0,0,4,.35,4.09,1.31s-1,3.69-2.6,7.15c3.4-4.08,7.6-8.81,9.33-9.44,3.11-1.15,5.43,1.39,5.34,2.74-.11,1.74-2.12,6.79-4.33,11.11ZM337.42,246.11c-5.63-5.82-19.22-18.33-37.61-24.75,0,0,40.81,12.1,57.68,29a33.51,33.51,0,0,0-7.82-13.29s38,21.33,47.3,50.36l.07.2a18.489,18.489,0,0,0,.5-3.05c-.32-4.88-1.27-12.07-4-17,0,0,11.82,12.75,8.14,27.87A22.55,22.55,0,0,0,407,283s1.23,13-7.37,23l5.5,1.55c-2.44-.53-7.72,1.21-8.64,1.53l-.08.06c7.66,1.6,10.29,11.64,10.29,11.64-3.65-4.42-10.31-4.35-10.31-4.35s6.84,3.59,5.1,8c-.93,2.31-1.36,6.76-1.56,10.45h-29.7c2.71-5.09,3.2-12,3.2-12-2.91,5.6-6.85,4.82-6.85,4.82a18.21,18.21,0,0,0,2.72-5.53,36.1,36.1,0,0,1-4.79,2s1.94-5.3,1.05-14.18c0,0-4.75,11.27-12.14,14.11s-12.1-.8-18.81,2.42-15.93-.43-18.77-3.31c0,0-16.4,7.53-24.86,6.52s-7.1-4.77-13.26-2.4-32.16,2.61-48.67-10.15a25.229,25.229,0,0,0,2.36,3.74l1.41.22-1.12.16a29.94,29.94,0,0,0,10.05,8.5,111.25,111.25,0,0,1-13.71-.49A28.539,28.539,0,0,0,233.8,333a36.07,36.07,0,0,1-4.9,1.89H207.29a16,16,0,0,1-.24-3.53c.22-2.89,2.63-4.46,4.17-5.18-.54-.17-1.09-.35-1.63-.54l-5.18-.09,3.07-.71a38.048,38.048,0,0,1-4.12-1.95c-14.43-8-17.58-25.62-17.15-32.71,0,0,11.55,20.19,31.34,24.23,0,0-11.21-6.31-17-13.81,0,0,15.7,6.65,28.3,8,0,0-21.65-9.82-27.5-20.1s-7.77-23.86-7.77-23.86,25.63,37.36,73.94,48c0,0-51.2-39.7-59.41-42.79,0,0,59.57,29.28,74.3,43.35,0,0-25.29-28.34-41.23-37.6,0,0,24.68,7.51,34.78,15.52,0,0-23-23.74-59.21-29.61l-7.14-3.73s62.42-.78,104.92,40A115.76,115.76,0,0,0,274.7,260.2s34.4,5.28,60.31,37.27c-7.42-22.56-51.21-54.25-88.57-41.8l-10.32-2.12s30.89-14.79,64.34-.71,37.92,24,37.92,24S322.7,251.25,306,249.06c0,0,13.85.52,20.08,5.44,0,0-22.74-22.5-52.73-13.07,0,0,8.13-9,27.5-7.64,0,0-4.59-6-11.67-7.72,0,0,21.72,3.24,42.91,20.67S359,296.63,359,296.63s-.13-24.27-9.69-37.46c0,0,19.74,19.12,22,43.47,0,0,1.57-41.89-31.28-53.52l-2.52-3Z" transform="translate(-35.27 -125.27)"/>
  <path id="Path_49" data-name="Path 49" class="cls-4" d="M181.69,334.87h41.38V327H181.69v7.85Zm207.24,0h41.38V327H388.93v7.85Zm0,88.09h41.38v-7.85H388.93V423Zm-207.24,0h41.38v-7.85H181.69V423Z" transform="translate(-35.27 -125.27)"/>
  <path id="Path_50" data-name="Path 50" class="cls-5" d="M184.44,345.41h22.62c4.87,0,8,.85,9.73,2.48s2.39,4.18,2.39,7.68v11.1a8,8,0,0,1-4.52,7.68c-.77.34-1.2.68-1.2.94s.43.51,1.2.85c3.33,1.71,5,4.27,5,7.77V395c0,3.41-.77,6.06-2.39,7.68s-4.95,2.48-9.73,2.48h-23.1Zm20.32,24.07a2.64,2.64,0,0,0,1.53-2.73v-8.28a1.35,1.35,0,0,0-1.53-1.53h-7v14.93l7-2.39Zm0,24.16a1.35,1.35,0,0,0,1.53-1.53v-9.48a1.42,1.42,0,0,0-1.53-1.62l-7,2.39v10.24Zm50.5-48.83,10.84,59.76H252.79l-2-11.27L237.76,398l-1.19,6.57H223.25l10.84-59.76Zm-15.36,40.3,8.87-3.25L244.68,355l-4.78,30.14Zm59.12-2c2.05-.68,3.33-1.19,4.27-2.13,1.62-1.71,2.48-4.18,2.48-7.68V355c0-3.41-.86-6-2.48-7.68-1.62-1.54-4.78-2.39-9.56-2.39H270.94v59.75h13.14V388.43l3.25-1.1,6.57,17.32h13.4L299,383.14Zm-7.93-26.89c1,0,1.45.51,1.45,1.62v11.44c0,1.8-.43,2.48-1.54,2.82l-6.92,2.56V356.25Zm20.54-10.84h22.62c4.86,0,8,.85,9.73,2.48s2.39,4.18,2.39,7.68v11.1a8,8,0,0,1-4.53,7.68c-.76.34-1.19.68-1.19.94s.43.51,1.19.85c3.33,1.71,5,4.27,5,7.77V395c0,3.41-.77,6.06-2.39,7.68s-5,2.48-9.74,2.48h-23V345.41Zm20.31,24.07a2.64,2.64,0,0,0,1.54-2.73v-8.28a1.36,1.36,0,0,0-1.54-1.53h-7v14.93l7-2.39Zm0,24.16a1.36,1.36,0,0,0,1.54-1.53V382.6a1.42,1.42,0,0,0-1.54-1.62l-7,2.39v10.24ZM385,356.34H368.45v12.55H382.7v11.52H368.45V393H385v11.53H355V393h.08V344.81H385Zm37,26.8c2.05-.68,3.33-1.19,4.26-2.13,1.63-1.71,2.48-4.18,2.48-7.68V355c0-3.41-.85-6-2.48-7.68-1.62-1.54-4.78-2.39-9.56-2.39H393.94v59.75h13.15V388.43l3.24-1.1,6.57,17.32h13.41L422,383.14Zm-7.94-26.89c1,0,1.45.51,1.45,1.62v11.44c0,1.8-.43,2.48-1.54,2.82l-6.91,2.56V356.25Z" transform="translate(-35.27 -125.27)"/>
</svg>
