<svg xmlns="http://www.w3.org/2000/svg" viewBox="0 0 170.89 54.37"><defs><style>.cls-1{fill:#64605f;fill-rule:evenodd;}</style></defs><title>Element 1</title><g id="Ebene_2" data-name="Ebene 2"><g id="Layer_1" data-name="Layer 1"><path class="cls-1" d="M167.25,6.17a16.15,16.15,0,0,0-21.19-3.76S138.9,5.35,137.88,13c-.76,5.81,4.61,10.34,8.72,9.45,1.57-.33,4.19-1.54,4.4-3.64,0,0-7.53,4.88-10.63-1.84-3.52-7.63,6.44-13.82,12.32-13.82a11.35,11.35,0,0,1,11.54,11.29c.18,7-3.95,10.7-9.44,12.93-8.43,3.43-19.77,4.51-27.64.13A116.58,116.58,0,0,1,112,17.81c-3.34-2.4-9.36-6.37-13.52-5.28,0,0-8.44.41-13,6.07-4.54-5.66-13-6.07-13-6.07-4.16-1.09-10.18,2.88-13.52,5.28a116.07,116.07,0,0,1-15.21,9.71c-7.86,4.38-19.21,3.3-27.63-.13-5.49-2.23-9.62-5.93-9.44-12.93A11.34,11.34,0,0,1,18.19,3.17C24.07,3.17,34,9.36,30.52,17c-3.1,6.72-10.63,1.84-10.63,1.84.21,2.1,2.83,3.31,4.4,3.64,4.1.89,9.47-3.64,8.71-9.45C32,5.35,24.82,2.41,24.82,2.41A16.16,16.16,0,0,0,3.63,6.17C1.77,8.65-5.88,22.45,8.93,38.05s38.37,16.3,45.13,16.3c4.08,0,23.48,1.21,31.38-15.58,7.91,16.79,27.31,15.58,31.38,15.58,6.77,0,30.34-.7,45.14-16.3S169.12,8.65,167.25,6.17Z"/></g></g></svg>