<svg xmlns="http://www.w3.org/2000/svg" viewBox="0 0 154.54 115.83"><defs><style>.cls-1{fill:#2a2a2a;}</style></defs><title>Element 11</title><g id="Ebene_2" data-name="Ebene 2"><g id="Layer_1" data-name="Layer 1"><path class="cls-1" d="M0,7.24.3,55.18s7.29-6.7,15.63-6.1l.15-36.48S.3,10.22,0,7.24Z"/><path class="cls-1" d="M115.24.46C81.74-2.44,69,9.17,56.06,11.18c-12.16,1.89-32.61,3.13-32.39,2.46V48s24.79.9,36.63,5.14S104.07,64.34,108.76,61s-8.47,26.45-5.8,46.68c1.11,8.49,3.57,7.37,7.81,7.82,0,0,17.64,3.12,16.08-9.16s1.34-46.45,9.38-49.8,18.31-10.05,18.31-25.24S148.74,3.37,115.24.46Zm14.29,45.79a16.08,16.08,0,1,1,16.08-16.08A16.08,16.08,0,0,1,129.53,46.25Z"/></g></g></svg>