<svg xmlns="http://www.w3.org/2000/svg" viewBox="0 0 76.35 144.19"><defs><style>.cls-1{fill:#2a2a2a;}</style></defs><title>Element 12</title><g id="Ebene_2" data-name="Ebene 2"><g id="Layer_1" data-name="Layer 1"><path class="cls-1" d="M.15,87.24H0l.15.06v.24H.74c3.72,1.58,20.49,9.21,21.58,18.79a173.24,173.24,0,0,1,.92,21.55,11.34,11.34,0,0,0-4,8.92c.31,5.47,10.19,7.33,18.43,7.39H38c8.25-.06,18.13-1.92,18.43-7.39a11.34,11.34,0,0,0-4-8.92,173.24,173.24,0,0,1,.92-21.55C54.47,96.75,71.23,89.12,75,87.54h1.4V76.46H.15Z"/><polygon class="cls-1" points="74.03 59.84 72.92 0.04 71.5 0 70.58 59.84 61.1 59.84 59.99 0.04 58.57 0 57.65 59.84 50.94 59.84 49.83 0.04 48.41 0 47.49 59.84 40.16 59.84 39.06 0.04 37.64 0 36.72 59.84 28.16 59.84 27.05 0.04 25.63 0 24.71 59.84 16.15 59.84 15.05 0.04 13.62 0 12.71 59.84 4.76 59.84 3.66 0.04 2.23 0 1.32 59.84 0.15 59.84 0.15 70.92 76.35 70.92 76.35 59.84 74.03 59.84"/></g></g></svg>