<svg xmlns="http://www.w3.org/2000/svg" viewBox="0 0 79.89 187.5"><defs><style>.cls-1{fill:#FFF;}</style></defs><title>Element 13</title><g id="Ebene_2" data-name="Ebene 2"><g id="Layer_1" data-name="Layer 1"><path class="cls-1" d="M78.63,181.6c-3.47-8.68-24.52-58.81-24.52-58.81s-14.11-22.57-2-29.51l-.07-.14,18.59-8.53A2,2,0,0,0,69,81L50.28,89.56l-1.76-3.48,18.86-8.66A1.71,1.71,0,0,0,66,74.32L47,83l-1.42-2.81,18.85-8.64A1.71,1.71,0,0,0,63,68.48l-19,8.7-1.57-3.12L62.25,65a1.71,1.71,0,0,0-1.42-3.1L40.93,71l-1.14-2.27,19.86-9.12a1.7,1.7,0,0,0-1.42-3.09l-20,9.16-1.66-3.31,19.87-9.12a1.7,1.7,0,0,0-1.41-3.1l-20,9.17-1.51-3,19.6-9a1.71,1.71,0,0,0-1.42-3.1L32,53.29l-1.52-3,20.05-9.2A1.71,1.71,0,0,0,49.11,38L28.94,47.22l-1.45-2.89,19.8-9.09a1.71,1.71,0,0,0-1.42-3.1L26,41.28l-1.42-2.81L44.6,29.26a1.71,1.71,0,0,0-1.42-3.1L23,35.42l-1.69-3.34,21-9.62a1.71,1.71,0,0,0-1.42-3.1L19.78,29l-1.41-2.79,21.17-9.71a1.71,1.71,0,0,0-1.42-3.1L16.83,23.19,15,19.53l21.37-9.8a1.68,1.68,0,0,0,.77-2.23,1.66,1.66,0,0,0-2.19-.87L13.45,16.48l-1.39-2.77L33.24,4a1.94,1.94,0,0,0,.59-2.62A1.92,1.92,0,0,0,31.46.12L1.68,13.78a1.61,1.61,0,0,0-.83,1.5C-.08,17-.93,20.61,2.24,27.53,7,37.94,77.33,186.81,77.33,186.81S82.1,190.28,78.63,181.6Z"/></g></g></svg>