<svg xmlns="http://www.w3.org/2000/svg" viewBox="0 0 97.25 123.08"><defs><style>.cls-1{fill:#FFF;}</style></defs><title>Element 8</title><g id="Ebene_2" data-name="Ebene 2"><g id="Layer_1" data-name="Layer 1"><path class="cls-1" d="M26.38,62a31.81,31.81,0,0,1-7.32,14.64C13.21,82.87,4.79,92.75,2.23,97.88s-5.49,12.81,7.32,18.3,23.05,12.8,29.64-1.1,2.93-20.86,6.22-30S50.9,73,50.9,73Z"/><polygon class="cls-1" points="27.3 51.95 26.93 56.89 54.01 69.33 57.3 65.67 27.3 51.95"/><path class="cls-1" d="M21.14,3.83,28.46,49,58.71,62.63,97.25,38.47l-5.61-11-8.78,5.13L88,23.1a24.93,24.93,0,0,0-18-14.64c-.68-.13-5.86,12.45-5.86,12.45V5.78S54.32-.81,42.85,1.63l-.24,13.18L37.48,1.39S24.31-3,21.14,3.83Z"/></g></g></svg>