<svg xmlns="http://www.w3.org/2000/svg" viewBox="0 0 139.54 195.3"><defs><style>.cls-1{fill:#FFF;}.cls-2{fill:#fffdf0;}</style></defs><title>Element 19</title><g id="Ebene_2" data-name="Ebene 2"><g id="Layer_1" data-name="Layer 1"><path class="cls-1" d="M87.77,2.83s-1,13.73-9.07,24.51L83.11,34S93.9,14.61,93.65,4.79C93.49-1.75,87.93-.77,87.77,2.83Z"/><path class="cls-1" d="M67.91,40.09l-9.32,8.09A76.65,76.65,0,0,0,49,60.69c-4.9,7.84-22.55,40.69-22.55,40.69L0,153.11s.25,14.47,19.37,9.81c.95-.23,24-45.36,24-45.36s-4.9-5.88.25-18.87,28.19-50,28.19-50Z"/><path class="cls-1" d="M83.35,35.93S76.25,25,73.06,23.42c-3.93-2-13.49-4.66-9.07,7.85,4.75,13.45,16.67,35.06,16.67,35.06s21.33,46.09,27,67.41,11.27,41.44,12,46.83,2.21,15.2,10.79,14.71,9.8-12.5,8.82-17.41-14.46-59.08-28.93-88.5C110.32,89.37,87.52,42.3,83.35,35.93Z"/><path class="cls-2" d="M79.25,38.28a2.88,2.88,0,1,1-2.87-2.87A2.87,2.87,0,0,1,79.25,38.28Z"/><path class="cls-2" d="M111,104.37a2.88,2.88,0,1,1-2.86-2.9A2.89,2.89,0,0,1,111,104.37Z"/><path class="cls-2" d="M122.76,138.18a2.87,2.87,0,1,1-2.87-2.87A2.86,2.86,0,0,1,122.76,138.18Z"/><path class="cls-2" d="M132.32,179.36a2.87,2.87,0,1,1-2.87-2.87A2.87,2.87,0,0,1,132.32,179.36Z"/></g></g></svg>