<svg id="Layer_1" data-name="Layer 1" xmlns="http://www.w3.org/2000/svg" viewBox="0 0 181.75 182.57"><defs><style>.cls-1{fill:#009fe3;}.cls-2{fill:#00b5e2;}</style></defs><title>roelldev-logo</title><path class="cls-1" d="M104.34,251.63a6.56,6.56,0,0,1-6.55,6.53h-.46l6.67,7.77a1.54,1.54,0,0,1,.34.95,1.52,1.52,0,0,1-1.49,1.47,1.39,1.39,0,0,1-1.07-.53l-8.69-10.14a1.57,1.57,0,0,1-.38-1,1.38,1.38,0,0,1,.55-1.12,1.43,1.43,0,0,1,1.2-.34H97.8a3.63,3.63,0,0,0,2.57-6.19A3.53,3.53,0,0,0,97.8,248H90.53v18.89a1.35,1.35,0,0,1-.44,1.08,1.55,1.55,0,0,1-2,0,1.35,1.35,0,0,1-.44-1.08V246.55a1.49,1.49,0,0,1,1.46-1.45H97.8a6.54,6.54,0,0,1,6.54,6.53Z" transform="translate(-87.62 -85.78)"/><path class="cls-1" d="M132.57,256.72a11.61,11.61,0,1,1-3.4-8.22A11.2,11.2,0,0,1,132.57,256.72Zm-2.91,0a8.71,8.71,0,1,0-2.54,6.16A8.39,8.39,0,0,0,129.66,256.72Z" transform="translate(-87.62 -85.78)"/><path class="cls-1" d="M153.83,268.35h-7.24a8,8,0,0,1-5.86-2.42,7.9,7.9,0,0,1-2.43-5.84v-6.74a7.92,7.92,0,0,1,2.43-5.84,8,8,0,0,1,5.86-2.41h7.24a1.36,1.36,0,0,1,1.06.43,1.53,1.53,0,0,1,0,2,1.36,1.36,0,0,1-1.06.43h-7.24a5.36,5.36,0,0,0-5.38,5.35v6.74a5.36,5.36,0,0,0,5.38,5.35h7.24a1.33,1.33,0,0,1,1.06.44,1.52,1.52,0,0,1,0,2A1.37,1.37,0,0,1,153.83,268.35Zm-2.49-10.19H145a1.35,1.35,0,0,1-1.08-.44,1.55,1.55,0,0,1,0-2,1.35,1.35,0,0,1,1.08-.44h6.33a1.35,1.35,0,0,1,1.08.44,1.55,1.55,0,0,1,0,2A1.35,1.35,0,0,1,151.34,258.16Z" transform="translate(-87.62 -85.78)"/><path class="cls-1" d="M174.21,268.35h-6a8.14,8.14,0,0,1-8.17-8.17V246.55a1.36,1.36,0,0,1,.43-1.08,1.59,1.59,0,0,1,2,0,1.36,1.36,0,0,1,.43,1.08v13.63a5.26,5.26,0,0,0,5.27,5.26h6a1.31,1.31,0,0,1,1.07.44,1.55,1.55,0,0,1,0,2A1.34,1.34,0,0,1,174.21,268.35Z" transform="translate(-87.62 -85.78)"/><path class="cls-1" d="M193.16,268.35h-6a8.16,8.16,0,0,1-8.17-8.17V246.55a1.37,1.37,0,0,1,.44-1.08,1.58,1.58,0,0,1,2,0,1.37,1.37,0,0,1,.44,1.08v13.63a5.26,5.26,0,0,0,5.26,5.26h6a1.35,1.35,0,0,1,1.08.44,1.58,1.58,0,0,1,0,2A1.38,1.38,0,0,1,193.16,268.35Z" transform="translate(-87.62 -85.78)"/><path class="cls-1" d="M219,256.72a11.61,11.61,0,0,1-11.62,11.63h-1.72a1.37,1.37,0,0,1-1.06-.44,1.52,1.52,0,0,1,0-2,1.33,1.33,0,0,1,1.06-.44h1.72a8.72,8.72,0,0,0,0-17.44h-5.44v18.89a1.34,1.34,0,0,1-.43,1.06,1.5,1.5,0,0,1-2,0,1.34,1.34,0,0,1-.43-1.06V246.55a1.47,1.47,0,0,1,1.45-1.45h6.89A11.61,11.61,0,0,1,219,256.72Z" transform="translate(-87.62 -85.78)"/><path class="cls-1" d="M240.22,268.35H233a8,8,0,0,1-5.86-2.42,7.9,7.9,0,0,1-2.43-5.84v-6.74a7.92,7.92,0,0,1,2.43-5.84A8,8,0,0,1,233,245.1h7.24a1.36,1.36,0,0,1,1.06.43,1.53,1.53,0,0,1,0,2,1.36,1.36,0,0,1-1.06.43H233a5.36,5.36,0,0,0-5.38,5.35v6.74a5.36,5.36,0,0,0,5.38,5.35h7.24a1.33,1.33,0,0,1,1.06.44,1.52,1.52,0,0,1,0,2A1.37,1.37,0,0,1,240.22,268.35Zm-2.49-10.19H231.4a1.35,1.35,0,0,1-1.08-.44,1.55,1.55,0,0,1,0-2,1.35,1.35,0,0,1,1.08-.44h6.33a1.35,1.35,0,0,1,1.08.44,1.55,1.55,0,0,1,0,2A1.35,1.35,0,0,1,237.73,258.16Z" transform="translate(-87.62 -85.78)"/><path class="cls-1" d="M269.29,247l-5.76,17a6.42,6.42,0,0,1-2.28,3.22,5.84,5.84,0,0,1-3.42,1.17,5.61,5.61,0,0,1-3.46-1.11A6.22,6.22,0,0,1,252,264l-5.76-17a1.53,1.53,0,0,1-.08-.52,1.23,1.23,0,0,1,.46-1,1.58,1.58,0,0,1,1-.39,1.32,1.32,0,0,1,1.34,1L254.74,263a3.28,3.28,0,0,0,3.06,2.41,3.24,3.24,0,0,0,3-2.41l5.76-16.95a1.3,1.3,0,0,1,1.33-1,1.57,1.57,0,0,1,1,.39,1.24,1.24,0,0,1,.47,1A1.54,1.54,0,0,1,269.29,247Z" transform="translate(-87.62 -85.78)"/><path class="cls-1" d="M152.16,109.45l-29.22,9.18c-23,7.22-28.59,27.78-12.53,45.7l20.93,23.33V153.75a6.8,6.8,0,0,1-.16-1.57c.16-11.32,3-20.69,7.38-28.08A48.18,48.18,0,0,1,152.16,109.45ZM220.8,87.86,186.33,98.7h.22c4.06,0,7.38.26,7.49.27A7,7,0,1,1,193,112.84h-.11l-.36,0-1.4-.08c-1.18-.06-2.81-.12-4.54-.12a50.53,50.53,0,0,0-5.07.22,46.82,46.82,0,0,0-11.62,2.83,41,41,0,0,0-13.31,8.11,33.47,33.47,0,0,0-7,9.25,41.8,41.8,0,0,0-4.34,17.35v41.3a6.34,6.34,0,0,1-2.08,5.09,7.17,7.17,0,0,1-2.36,1.38L157,216.23c16.06,17.92,37.11,14.54,46.78-7.49l7.94-18.11a37.22,37.22,0,0,1-23.55,7.93,39,39,0,0,1-39.07-39.16,39,39,0,0,1,39.07-39h5.64a6.48,6.48,0,0,1,5.09,2,7.15,7.15,0,0,1,1.79,4.92,7.24,7.24,0,0,1-1.78,4.84,6.33,6.33,0,0,1-5.08,2.08h-5.63a25.22,25.22,0,0,0-17.86,43.07,25.12,25.12,0,0,0,42.91-17.84v-55a6.35,6.35,0,0,1,2.08-5.09,7.19,7.19,0,0,1,4.84-1.78A7.06,7.06,0,0,1,225,99.35a6.43,6.43,0,0,1,2,5.08V155.6L245,114.8C254.62,92.77,243.75,80.65,220.8,87.86Z" transform="translate(-87.62 -85.78)"/><path class="cls-2" d="M220.8,87.86,186.33,98.7h.22c4.06,0,7.38.26,7.49.27A7,7,0,1,1,193,112.84h-.11l-.36,0-1.4-.08c-1.18-.06-2.81-.12-4.54-.12a50.53,50.53,0,0,0-5.07.22,46.82,46.82,0,0,0-11.62,2.83,41,41,0,0,0-13.31,8.11,33.47,33.47,0,0,0-7,9.25,41.8,41.8,0,0,0-4.34,17.35v41.3a6.34,6.34,0,0,1-2.08,5.09,7.17,7.17,0,0,1-2.36,1.38L157,216.23c16.06,17.92,37.11,14.54,46.78-7.49l7.94-18.11a37.22,37.22,0,0,1-23.55,7.93,39,39,0,0,1-39.07-39.16,39,39,0,0,1,39.07-39h5.64a6.48,6.48,0,0,1,5.09,2,7.15,7.15,0,0,1,1.79,4.92,7.24,7.24,0,0,1-1.78,4.84,6.33,6.33,0,0,1-5.08,2.08h-5.63a25.22,25.22,0,0,0-17.86,43.07,25.12,25.12,0,0,0,42.91-17.84v-55a6.35,6.35,0,0,1,2.08-5.09,7.19,7.19,0,0,1,4.84-1.78A7.06,7.06,0,0,1,225,99.35a6.43,6.43,0,0,1,2,5.08V155.6L245,114.8C254.62,92.77,243.75,80.65,220.8,87.86Z" transform="translate(-87.62 -85.78)"/></svg>