<svg xmlns="http://www.w3.org/2000/svg" viewBox="0 0 153.74 139.13"><defs><style>.cls-1{fill:#2f2c2c;}</style></defs><title>Element 10</title><g id="Ebene_2" data-name="Ebene 2"><g id="Layer_1" data-name="Layer 1"><path class="cls-1" d="M49.75,80.13c-30.07-3.94-74.86,44.37-32.21,59,15.35-19.26,36-33.26,42-61.83,8.12,3.51,12.34-5.45,17.22-7.86,4.88,2.41,9.15,11.34,17.26,7.82,6.1,28.56,26.78,42.5,42.19,61.72,42.61-14.72-2.31-62.93-32.36-58.93.56-8.5-10.82-13.48-15.47-21C107,40.16,126.57,22.3,141.69,0,129.63,2.25,97,31.9,91.19,36.56,88.37,38.81,79.62,48,77.48,49.09a3.25,3.25,0,0,0-.7,0,3.25,3.25,0,0,0-.7,0C73.94,48,65.17,38.82,62.33,36.59,56.47,32,23.84,2.37,11.76.15,26.92,22.43,46.55,40.23,65.17,59.06,60.54,66.61,49.16,71.62,49.75,80.13ZM10.51,130.71c-16.06-17.79,25.31-56.44,39.25-45C55.56,90.18,15.39,136.12,10.51,130.71Zm93.38-45c13.91-11.5,55.37,27.06,39.37,44.87C138.38,136,98.11,90.13,103.89,85.67ZM75,53.43c.45,0,.86-.08,1.26-.1h1.06c.4,0,.83,0,1.27.08,0,0,3.84,1.79,2.82,5.63-.8,3-.85,4.33-4.6,4.4-3.27-.12-3.58-1.39-4.61-4.39C71.16,55.21,75,53.43,75,53.43Z"/></g></g></svg>